<?xml version="1.0" encoding="UTF-8" standalone="no"?>
<!-- Created with Inkscape (http://www.inkscape.org/) -->

<svg
   width="42cm"
   height="29.700001cm"
   viewBox="0 0 1587.4016 1122.5197"
   version="1.1"
   id="svg1"
   inkscape:version="1.4.2 (f4327f4, 2025-05-13)"
   sodipodi:docname="Abajo-arriba.svg"
   xmlns:inkscape="http://www.inkscape.org/namespaces/inkscape"
   xmlns:sodipodi="http://sodipodi.sourceforge.net/DTD/sodipodi-0.dtd"
   xmlns="http://www.w3.org/2000/svg"
   xmlns:svg="http://www.w3.org/2000/svg">
  <sodipodi:namedview
     id="namedview1"
     pagecolor="#ffffff"
     bordercolor="#999999"
     borderopacity="1"
     inkscape:showpageshadow="2"
     inkscape:pageopacity="0"
     inkscape:pagecheckerboard="0"
     inkscape:deskcolor="#d1d1d1"
     inkscape:document-units="cm"
     inkscape:zoom="0.6841369"
     inkscape:cx="632.91426"
     inkscape:cy="326.689"
     inkscape:window-width="1366"
     inkscape:window-height="745"
     inkscape:window-x="-8"
     inkscape:window-y="-8"
     inkscape:window-maximized="1"
     inkscape:current-layer="layer1"
     showgrid="true">
    <inkscape:grid
       id="grid1"
       units="cm"
       originx="0"
       originy="0"
       spacingx="37.795277"
       spacingy="37.795276"
       empcolor="#0099e5"
       empopacity="0.30196078"
       color="#0099e5"
       opacity="0.14901961"
       empspacing="5"
       enabled="true"
       visible="true" />
  </sodipodi:namedview>
  <defs
     id="defs1" />
  <g
     inkscape:label="Capa 1"
     inkscape:groupmode="layer"
     id="layer1">
    <path
       id="rect2"
       style="fill:#000000;fill-opacity:0;stroke:#000000;stroke-opacity:1"
       d="M 140.34375 26.957032 L 140.34375 38.294923 L 76.089845 38.294923 L 76.089845 102.54883 L 64.751954 102.54883 L 64.751954 178.13867 L 76.089845 178.13867 L 76.089845 631.68165 L 64.751954 631.68165 L 64.751954 707.2715 L 76.089845 707.2715 L 76.089845 771.52345 L 140.34375 771.52345 L 140.34375 782.86329 L 215.9336 782.86329 L 215.9336 771.52345 L 669.47657 771.52345 L 669.47657 782.86329 L 745.06837 782.86329 L 745.06837 771.52345 L 809.31837 771.52345 L 809.31837 707.2715 L 820.65822 707.2715 L 820.65822 631.68165 L 809.31837 631.68165 L 809.31837 178.13867 L 820.65822 178.13867 L 820.65822 102.54883 L 809.31837 102.54883 L 809.31837 38.294923 L 745.06837 38.294923 L 745.06837 26.957032 L 669.47657 26.957032 L 669.47657 38.294923 L 215.9336 38.294923 L 215.9336 26.957032 L 140.34375 26.957032 z " />
  </g>
</svg>
