<?xml version="1.0" encoding="UTF-8" standalone="no"?>
<!-- Created with Inkscape (http://www.inkscape.org/) -->

<svg
   width="29.700001cm"
   height="42cm"
   viewBox="0 0 1122.5197 1587.4016"
   version="1.1"
   id="svg1"
   inkscape:version="1.4.2 (f4327f4, 2025-05-13)"
   sodipodi:docname="Laterales.svg"
   xmlns:inkscape="http://www.inkscape.org/namespaces/inkscape"
   xmlns:sodipodi="http://sodipodi.sourceforge.net/DTD/sodipodi-0.dtd"
   xmlns="http://www.w3.org/2000/svg"
   xmlns:svg="http://www.w3.org/2000/svg">
  <sodipodi:namedview
     id="namedview1"
     pagecolor="#ffffff"
     bordercolor="#999999"
     borderopacity="1"
     inkscape:showpageshadow="2"
     inkscape:pageopacity="0"
     inkscape:pagecheckerboard="0"
     inkscape:deskcolor="#d1d1d1"
     inkscape:document-units="cm"
     showgrid="true"
     inkscape:zoom="0.48375784"
     inkscape:cx="557.09691"
     inkscape:cy="309.03892"
     inkscape:window-width="1366"
     inkscape:window-height="745"
     inkscape:window-x="-8"
     inkscape:window-y="-8"
     inkscape:window-maximized="1"
     inkscape:current-layer="layer1">
    <inkscape:grid
       id="grid1"
       units="cm"
       originx="0"
       originy="0"
       spacingx="37.795275"
       spacingy="37.795277"
       empcolor="#0099e5"
       empopacity="0.30196078"
       color="#0099e5"
       opacity="0.14901961"
       empspacing="5"
       enabled="true"
       visible="true" />
  </sodipodi:namedview>
  <defs
     id="defs1" />
  <g
     inkscape:label="Capa 1"
     inkscape:groupmode="layer"
     id="layer1">
    <path
       id="rect2"
       style="fill:#000000;fill-opacity:0;stroke:#000000;stroke-width:1.00157"
       d="M 189.47657 151.68164 L 189.47657 227.27149 L 178.13867 227.27149 L 178.13867 302.86329 L 189.47657 302.86329 L 189.47657 1134.3594 L 178.13867 1134.3594 L 178.13867 1209.9492 L 189.47657 1209.9492 L 189.47657 1285.541 L 253.72852 1285.541 L 253.72852 1274.2012 L 329.32032 1274.2012 L 329.32032 1285.541 L 782.86329 1285.541 L 782.86329 1274.2012 L 858.45314 1274.2012 L 858.45314 1285.541 L 922.70509 1285.541 L 922.70509 1209.9492 L 934.04494 1209.9492 L 934.04494 1134.3594 L 922.70509 1134.3594 L 922.70509 302.86329 L 934.03517 302.86329 L 934.03517 227.27149 L 922.70509 227.27149 L 922.70509 151.68164 L 858.45314 151.68164 L 858.45314 163.01953 L 782.86329 163.01953 L 782.86329 151.68164 L 329.32032 151.68164 L 329.32032 163.01953 L 253.72852 163.01953 L 253.72852 151.68164 L 189.47657 151.68164 z M 253.72852 291.52344 L 329.32032 291.52344 L 329.32032 302.86329 L 253.72852 302.86329 L 253.72852 291.52344 z M 782.86329 291.52344 L 858.45314 291.52344 L 858.45314 302.86329 L 782.86329 302.86329 L 782.86329 291.52344 z " />
  </g>
</svg>
